<svg xmlns="http://www.w3.org/2000/svg" viewBox="0 0 188.23 202.76"><defs><style>.a,.c{fill:#fff;}.b{fill:#333;}.c{stroke:#333;stroke-width:2px;}.c,.e{stroke-miterlimit:10;}.d{fill:#b3b3b3;}.e{fill:none;stroke:#000;stroke-width:0.75px;}</style></defs><path class="a" d="M55.85,167.5c17.65,4.91,47.95-14.63,46.08-25.51-1-5.87-15.58-9.43-17.65-9.81-14.85-2.73-37.42,12.27-39.22,24.53C44.49,160.62,50.92,166.13,55.85,167.5Z"/><path class="b" d="M6.17,72.61v82.87L143.11,86.07V3.61a3.61,3.61,0,0,0-5.27-3.2L9.51,67.12A6.18,6.18,0,0,0,6.17,72.61Z"/><path class="a" d="M12.62,174.34l126-65.36a8.24,8.24,0,0,0,4.44-7.31V86.07L6.17,155.48v14.94A4.42,4.42,0,0,0,12.62,174.34Z"/><path class="c" d="M71.53,138.07l2-8.83,5.88,2.94,5.13-9.08s2.67,5.5,2.67,7.48"/><path class="d" d="M0,70.2l.88,94.19a8.4,8.4,0,0,0,3,6.38l2.28,1.91V74.31a8,8,0,0,1,4.28-7.07L137.84.41,133.4.21a18.25,18.25,0,0,0-9.09,2L4.17,63.32A7.64,7.64,0,0,0,0,70.2Z"/><polygon class="b" points="51.28 191.4 129.39 151.99 152.92 161.61 73.45 202.75 51.28 191.4"/><path class="b" d="M154.88,136.11c-1,5.45,10.5,15.21,21.57,13.73,4.94-.66,11.48-3.79,11.77-7.85.41-5.75-11.75-13.21-22.55-11.77C165,130.3,155.74,131.63,154.88,136.11Z"/><path class="e" d="M170.16,135.86a13.63,13.63,0,0,0-4-2,17,17,0,0,0-7-1"/><path class="e" d="M161.16,141.86a41.59,41.59,0,0,0,10-5c2-1.54,2-3,3-5"/><line class="e" x1="62.6" y1="190.48" x2="129.16" y2="155.86"/><line class="e" x1="67.92" y1="194.19" x2="135.47" y2="158.36"/><line class="e" x1="75.64" y1="196.13" x2="142.16" y2="160.86"/></svg>