<svg xmlns="http://www.w3.org/2000/svg" xmlns:xlink="http://www.w3.org/1999/xlink" viewBox="0 0 115.72 43.58"><defs><style>.a{fill:#42210b;}.b{fill:#31374c;}.c{fill:#863334;}.d{fill:#c0b9b4;}.e{fill:#fdfcf9;}.f{fill:#656634;}.g{fill:#cabbb6;}.h{fill:#a69085;}.i{fill:#6d2225;}.j{fill:url(#a);}.k{fill:#404d60;}.l{fill:#333;}</style><linearGradient id="a" x1="18.71" y1="38.92" x2="24.72" y2="38.92" gradientUnits="userSpaceOnUse"><stop offset="0" stop-color="#591316"/><stop offset="1" stop-color="#6d2225"/></linearGradient></defs><path class="a" d="M23.72,42.58H22.33a6.21,6.21,0,0,1-5.4-3.14L.48,10.66A3.63,3.63,0,0,1,1.76,5.75l2-1.17Z"/><polygon class="a" points="77.72 43.58 73.72 43.58 48.72 29.58 57.72 26.58 77.72 43.58"/><path class="b" d="M2.76,5.07v2.6a6.12,6.12,0,0,0,.58,2.59l.38.82V7.58Z"/><polygon class="a" points="115.72 17.58 103.72 22.58 77.72 28.58 60.72 11.58 72.72 8.58 115.72 17.58"/><polygon class="c" points="88.72 13.58 53.72 24.58 78.09 38.58 113.72 25.58 88.72 13.58"/><polygon class="d" points="53.72 29.58 53.72 24.58 78.09 38.58 77.72 43.58 53.72 29.58"/><polygon class="e" points="113.72 30.58 77.72 43.58 78.09 38.58 113.72 25.58 113.72 30.58"/><polygon class="f" points="96.72 3.58 115.72 10.58 78.72 18.58 66.8 6.73 96.72 3.58"/><polygon class="g" points="115.72 17.58 115.72 10.58 78.72 18.58 78.72 25.58 115.72 17.58"/><polygon class="h" points="66.8 13.26 78.72 25.58 78.72 18.58 66.8 6.73 66.8 13.26"/><polygon class="i" points="78.72 25.58 73.72 24.58 68.72 19.58 72.14 18.79 78.72 25.58"/><path class="i" d="M44.35,32.17V33l-.27,2a4,4,0,0,1-2.92,3.32l-15.78,4.3a5,5,0,0,1-5.62-2.25l-1.05-1.75v-3.5"/><path class="j" d="M24.72,40.66v2.06a5,5,0,0,1-2-.14A5.44,5.44,0,0,1,20,40.67l-1.25-2.09v-3.5l1.4,3a4.36,4.36,0,0,0,2.6,2.33A4.51,4.51,0,0,0,24.72,40.66Z"/><polygon points="18.72 35.08 42.21 28.58 24.72 3.58 3.72 7.58 18.72 35.08"/><path class="c" d="M18.72,35.08,20.05,38a4.66,4.66,0,0,0,5.5,2.55l16.31-4.57a3.45,3.45,0,0,0,1.83-5.39l-1.48-2Z"/><path class="k" d="M24.72,3.58l-1.48-2a4,4,0,0,0-4-1.53L4.52,3A2.18,2.18,0,0,0,3,6.14l.72,1.44Z"/><polygon class="l" points="3.72 11.08 18.71 38.58 18.72 35.08 3.72 7.58 3.72 11.08"/><ellipse cx="16.22" cy="2.58" rx="1.5" ry="1.2"/><circle cx="9.92" cy="3.08" r="0.5"/><circle cx="11.62" cy="3.58" r="0.5"/><circle cx="10.62" cy="5.08" r="0.5"/><circle cx="9.02" cy="4.38" r="0.5"/><ellipse cx="28.22" cy="35.58" rx="2.25" ry="2"/><circle cx="34.92" cy="33.58" r="0.9"/><circle cx="35.92" cy="31.58" r="0.9"/><circle cx="37.32" cy="34.58" r="0.9"/><circle cx="38.32" cy="32.58" r="0.9"/></svg>