<?xml version="1.0" encoding="UTF-8"?>
<svg width="682px" height="223px" viewBox="0 0 682 223" version="1.1" xmlns="http://www.w3.org/2000/svg" xmlns:xlink="http://www.w3.org/1999/xlink">
    <title>Group</title>
    <defs>
        <linearGradient x1="2.36330563e-15%" y1="50%" x2="100%" y2="50%" id="linearGradient-1">
            <stop stop-color="#EEEEEE" offset="0%"></stop>
            <stop stop-color="#31506F" offset="100%"></stop>
        </linearGradient>
    </defs>
    <g id="Page-1" stroke="none" stroke-width="1" fill="none" fill-rule="evenodd">
        <g id="Group" transform="translate(1, 8.93)">
            <rect id="Rectangle" stroke="#2C353E" fill="url(#linearGradient-1)" x="0" y="56.07" width="680" height="25" rx="5"></rect>
            <g id="Not-Compiled" transform="translate(5.72, 63.028)" fill="#000000" fill-rule="nonzero">
                <polygon id="Path" points="5.274 0.486 8.154 0.486 8.154 12.042 5.454 12.042 2.88 5.976 2.88 12.042 0 12.042 0 0.486 2.7 0.486 5.274 6.66"></polygon>
                <path d="M12.06,3.06 L14.346,3.06 C15.258,3.06 15.912,3.252 16.308,3.636 C16.704,4.02 16.902,4.572 16.902,5.292 L16.902,9.81 C16.902,10.53 16.704,11.082 16.308,11.466 C15.912,11.85 15.258,12.042 14.346,12.042 L12.06,12.042 C11.148,12.042 10.494,11.85 10.098,11.466 C9.702,11.082 9.504,10.53 9.504,9.81 L9.504,5.292 C9.504,4.572 9.702,4.02 10.098,3.636 C10.494,3.252 11.148,3.06 12.06,3.06 Z M13.896,9.522 L13.896,5.58 C13.896,5.316 13.746,5.184 13.446,5.184 L12.96,5.184 C12.66,5.184 12.51,5.316 12.51,5.58 L12.51,9.522 C12.51,9.786 12.66,9.918 12.96,9.918 L13.446,9.918 C13.746,9.918 13.896,9.786 13.896,9.522 Z" id="Shape"></path>
                <path d="M22.806,5.31 L21.672,5.31 L21.672,9.396 C21.672,9.66 21.822,9.792 22.122,9.792 L22.788,9.792 L22.788,12.042 L21.258,12.042 C19.494,12.042 18.612,11.298 18.612,9.81 L18.612,5.31 L17.622,5.31 L17.622,3.06 L18.612,3.06 L18.612,1.296 L21.672,1.296 L21.672,3.06 L22.806,3.06 L22.806,5.31 Z" id="Path"></path>
                <path d="M35.046,4.806 L31.896,4.806 L31.896,2.952 C31.896,2.688 31.746,2.556 31.446,2.556 L30.816,2.556 C30.516,2.556 30.366,2.688 30.366,2.952 L30.366,9.576 C30.366,9.84 30.516,9.972 30.816,9.972 L31.446,9.972 C31.746,9.972 31.896,9.84 31.896,9.576 L31.896,7.794 L35.046,7.794 L35.046,9.81 C35.046,11.298 34.164,12.042 32.4,12.042 L29.862,12.042 C28.098,12.042 27.216,11.298 27.216,9.81 L27.216,2.718 C27.216,1.23 28.098,0.486 29.862,0.486 L32.4,0.486 C34.164,0.486 35.046,1.23 35.046,2.718 L35.046,4.806 Z" id="Path"></path>
                <path d="M38.682,3.06 L40.968,3.06 C41.88,3.06 42.534,3.252 42.93,3.636 C43.326,4.02 43.524,4.572 43.524,5.292 L43.524,9.81 C43.524,10.53 43.326,11.082 42.93,11.466 C42.534,11.85 41.88,12.042 40.968,12.042 L38.682,12.042 C37.77,12.042 37.116,11.85 36.72,11.466 C36.324,11.082 36.126,10.53 36.126,9.81 L36.126,5.292 C36.126,4.572 36.324,4.02 36.72,3.636 C37.116,3.252 37.77,3.06 38.682,3.06 Z M40.518,9.522 L40.518,5.58 C40.518,5.316 40.368,5.184 40.068,5.184 L39.582,5.184 C39.282,5.184 39.132,5.316 39.132,5.58 L39.132,9.522 C39.132,9.786 39.282,9.918 39.582,9.918 L40.068,9.918 C40.368,9.918 40.518,9.786 40.518,9.522 Z" id="Shape"></path>
                <path d="M53.82,3.06 L54.144,3.06 C55.74,3.06 56.538,3.804 56.538,5.292 L56.538,12.042 L53.478,12.042 L53.478,5.706 C53.478,5.442 53.328,5.31 53.028,5.31 L52.722,5.31 C52.398,5.31 52.236,5.49 52.236,5.85 L52.236,12.042 L49.176,12.042 L49.176,5.706 C49.176,5.442 49.026,5.31 48.726,5.31 L48.42,5.31 C48.096,5.31 47.934,5.49 47.934,5.85 L47.934,12.042 L44.874,12.042 L44.874,3.06 L47.88,3.06 L47.88,4.212 C48.048,3.444 48.594,3.06 49.518,3.06 L49.842,3.06 C50.958,3.06 51.69,3.438 52.038,4.194 C52.134,3.846 52.344,3.57 52.668,3.366 C52.992,3.162 53.376,3.06 53.82,3.06 Z" id="Path"></path>
                <path d="M62.532,3.06 L62.856,3.06 C64.452,3.06 65.25,3.804 65.25,5.292 L65.25,9.81 C65.25,11.298 64.452,12.042 62.856,12.042 L62.532,12.042 C61.704,12.042 61.176,11.718 60.948,11.07 L60.948,14.364 L57.888,14.364 L57.888,3.06 L60.894,3.06 L60.894,4.212 C61.062,3.444 61.608,3.06 62.532,3.06 Z M62.19,9.396 L62.19,5.706 C62.19,5.442 62.04,5.31 61.74,5.31 L61.434,5.31 C61.11,5.31 60.948,5.49 60.948,5.85 L60.948,9.252 C60.948,9.612 61.11,9.792 61.434,9.792 L61.74,9.792 C62.04,9.792 62.19,9.66 62.19,9.396 Z" id="Shape"></path>
                <path d="M66.456,2.16 L66.456,0 L69.624,0 L69.624,2.16 L66.456,2.16 Z M69.57,12.042 L66.51,12.042 L66.51,3.06 L69.57,3.06 L69.57,12.042 Z" id="Shape"></path>
                <polygon id="Path" points="74.07 12.042 71.01 12.042 71.01 0 74.07 0"></polygon>
                <path d="M77.976,3.06 L80.172,3.06 C81.936,3.06 82.818,3.804 82.818,5.292 L82.818,8.352 L78.228,8.352 L78.228,9.54 C78.228,9.804 78.378,9.936 78.678,9.936 L79.47,9.936 C79.77,9.936 79.92,9.792 79.92,9.504 L79.92,9 L82.818,9 L82.818,9.81 C82.818,11.298 81.936,12.042 80.172,12.042 L77.976,12.042 C76.212,12.042 75.33,11.298 75.33,9.81 L75.33,5.292 C75.33,3.804 76.212,3.06 77.976,3.06 Z M78.228,6.696 L79.92,6.696 L79.92,5.562 C79.92,5.298 79.77,5.166 79.47,5.166 L78.678,5.166 C78.378,5.166 78.228,5.298 78.228,5.562 L78.228,6.696 Z" id="Shape"></path>
                <path d="M88.11,0 L91.17,0 L91.17,12.042 L88.164,12.042 L88.164,10.89 C87.996,11.658 87.45,12.042 86.526,12.042 L86.202,12.042 C84.606,12.042 83.808,11.298 83.808,9.81 L83.808,5.292 C83.808,3.804 84.606,3.06 86.202,3.06 L86.526,3.06 C87.354,3.06 87.882,3.384 88.11,4.032 L88.11,0 Z M87.318,9.792 L87.624,9.792 C87.948,9.792 88.11,9.612 88.11,9.252 L88.11,5.85 C88.11,5.49 87.948,5.31 87.624,5.31 L87.318,5.31 C87.018,5.31 86.868,5.442 86.868,5.706 L86.868,9.396 C86.868,9.66 87.018,9.792 87.318,9.792 Z" id="Shape"></path>
            </g>
            <g id="React-18" transform="translate(23.44, 1.14)" fill="#000000" fill-rule="nonzero">
                <path d="M3.45,11.55 L3.45,18.93 L0,18.93 L0,0 L6.96,0 C9.14,0 10.23,0.99 10.23,2.97 L10.23,8.58 C10.23,10.22 9.5,11.18 8.04,11.46 L11.19,18.93 L7.47,18.93 L4.59,11.55 L3.45,11.55 Z M3.45,2.64 L3.45,9 L5.94,9 C6.26,9 6.48,8.945 6.6,8.835 C6.72,8.725 6.78,8.51 6.78,8.19 L6.78,3.45 C6.78,3.13 6.72,2.915 6.6,2.805 C6.48,2.695 6.26,2.64 5.94,2.64 L3.45,2.64 Z" id="Shape"></path>
                <path d="M15.87,4.2 L19.05,4.2 C21.21,4.2 22.29,5.19 22.29,7.17 L22.29,12.54 L15.9,12.54 L15.9,15.57 C15.9,15.89 15.955,16.105 16.065,16.215 C16.175,16.325 16.4,16.38 16.74,16.38 L18.12,16.38 C18.44,16.38 18.66,16.325 18.78,16.215 C18.9,16.105 18.96,15.89 18.96,15.57 L18.96,14.46 L22.26,14.46 L22.26,15.96 C22.26,17.94 21.17,18.93 18.99,18.93 L15.87,18.93 C13.69,18.93 12.6,17.94 12.6,15.96 L12.6,7.17 C12.6,5.19 13.69,4.2 15.87,4.2 Z M15.9,10.35 L19.02,10.35 L19.02,7.53 C19.02,7.21 18.96,6.995 18.84,6.885 C18.72,6.775 18.5,6.72 18.18,6.72 L16.74,6.72 C16.42,6.72 16.2,6.775 16.08,6.885 C15.96,6.995 15.9,7.21 15.9,7.53 L15.9,10.35 Z" id="Shape"></path>
                <path d="M30.42,4.2 L33.78,4.2 L33.78,18.93 L30.36,18.93 L30.36,17.67 C30.06,18.51 29.37,18.93 28.29,18.93 L27.36,18.93 C25.32,18.93 24.3,17.94 24.3,15.96 L24.3,7.17 C24.3,5.19 25.32,4.2 27.36,4.2 L28.29,4.2 C29.47,4.2 30.18,4.68 30.42,5.64 L30.42,4.2 Z M28.53,16.29 L29.43,16.29 C30.05,16.29 30.36,15.96 30.36,15.3 L30.36,7.83 C30.36,7.17 30.05,6.84 29.43,6.84 L28.53,6.84 C28.21,6.84 27.99,6.895 27.87,7.005 C27.75,7.115 27.69,7.33 27.69,7.65 L27.69,15.48 C27.69,15.8 27.75,16.015 27.87,16.125 C27.99,16.235 28.21,16.29 28.53,16.29 Z" id="Shape"></path>
                <path d="M45.6,9.15 L42.27,9.15 L42.27,7.65 C42.27,7.33 42.21,7.115 42.09,7.005 C41.97,6.895 41.75,6.84 41.43,6.84 L40.35,6.84 C40.03,6.84 39.81,6.895 39.69,7.005 C39.57,7.115 39.51,7.33 39.51,7.65 L39.51,15.48 C39.51,15.8 39.57,16.015 39.69,16.125 C39.81,16.235 40.03,16.29 40.35,16.29 L41.43,16.29 C41.75,16.29 41.97,16.235 42.09,16.125 C42.21,16.015 42.27,15.8 42.27,15.48 L42.27,13.95 L45.6,13.95 L45.6,15.96 C45.6,17.94 44.51,18.93 42.33,18.93 L39.39,18.93 C37.21,18.93 36.12,17.94 36.12,15.96 L36.12,7.17 C36.12,5.19 37.21,4.2 39.39,4.2 L42.33,4.2 C44.51,4.2 45.6,5.19 45.6,7.17 L45.6,9.15 Z" id="Path"></path>
                <path d="M53.46,6.84 L51.45,6.84 L51.45,15.39 C51.45,15.71 51.51,15.925 51.63,16.035 C51.75,16.145 51.98,16.2 52.32,16.2 L53.43,16.2 L53.43,18.93 L51.33,18.93 C49.15,18.93 48.06,17.94 48.06,15.96 L48.06,6.84 L46.59,6.84 L46.59,4.2 L48.06,4.2 L48.06,1.56 L51.45,1.56 L51.45,4.2 L53.46,4.2 L53.46,6.84 Z" id="Path"></path>
                <polygon id="Path" points="64.95 0 64.95 18.93 61.5 18.93 61.5 2.64 59.16 2.64 59.16 0"></polygon>
                <path d="M77.7,2.97 L77.7,7.08 C77.7,8.32 77.28,9.08 76.44,9.36 C77.28,9.64 77.7,10.36 77.7,11.52 L77.7,15.96 C77.7,17.94 76.61,18.93 74.43,18.93 L70.95,18.93 C68.77,18.93 67.68,17.94 67.68,15.96 L67.68,11.52 C67.68,10.36 68.1,9.64 68.94,9.36 C68.1,9.08 67.68,8.32 67.68,7.08 L67.68,2.97 C67.68,0.99 68.77,0 70.95,0 L74.43,0 C76.61,0 77.7,0.99 77.7,2.97 Z M74.37,15.51 L74.37,11.37 C74.37,11.05 74.31,10.835 74.19,10.725 C74.07,10.615 73.84,10.56 73.5,10.56 L71.88,10.56 C71.56,10.56 71.34,10.615 71.22,10.725 C71.1,10.835 71.04,11.05 71.04,11.37 L71.04,15.51 C71.04,15.83 71.1,16.045 71.22,16.155 C71.34,16.265 71.56,16.32 71.88,16.32 L73.5,16.32 C73.84,16.32 74.07,16.265 74.19,16.155 C74.31,16.045 74.37,15.83 74.37,15.51 Z M74.37,7.38 L74.37,3.42 C74.37,3.1 74.31,2.885 74.19,2.775 C74.07,2.665 73.84,2.61 73.5,2.61 L71.88,2.61 C71.56,2.61 71.34,2.665 71.22,2.775 C71.1,2.885 71.04,3.1 71.04,3.42 L71.04,7.38 C71.04,7.7 71.1,7.915 71.22,8.025 C71.34,8.135 71.56,8.19 71.88,8.19 L73.5,8.19 C73.84,8.19 74.07,8.135 74.19,8.025 C74.31,7.915 74.37,7.7 74.37,7.38 Z" id="Shape"></path>
            </g>
            <g id="Other" transform="translate(318.32, -0)" fill="#000000" fill-rule="nonzero">
                <path d="M3.27,1.14 L6.93,1.14 C9.11,1.14 10.2,2.13 10.2,4.11 L10.2,17.1 C10.2,19.08 9.11,20.07 6.93,20.07 L3.27,20.07 C1.09,20.07 5.68434189e-14,19.08 5.68434189e-14,17.1 L5.68434189e-14,4.11 C5.68434189e-14,2.13 1.09,1.14 3.27,1.14 Z M6.75,16.62 L6.75,4.59 C6.75,4.27 6.69,4.055 6.57,3.945 C6.45,3.835 6.23,3.78 5.91,3.78 L4.32,3.78 C3.98,3.78 3.75,3.835 3.63,3.945 C3.51,4.055 3.45,4.27 3.45,4.59 L3.45,16.62 C3.45,16.94 3.51,17.155 3.63,17.265 C3.75,17.375 3.98,17.43 4.32,17.43 L5.91,17.43 C6.23,17.43 6.45,17.375 6.57,17.265 C6.69,17.155 6.75,16.94 6.75,16.62 Z" id="Shape"></path>
                <path d="M18.57,7.98 L16.56,7.98 L16.56,16.53 C16.56,16.85 16.62,17.065 16.74,17.175 C16.86,17.285 17.09,17.34 17.43,17.34 L18.54,17.34 L18.54,20.07 L16.44,20.07 C14.26,20.07 13.17,19.08 13.17,17.1 L13.17,7.98 L11.7,7.98 L11.7,5.34 L13.17,5.34 L13.17,2.7 L16.56,2.7 L16.56,5.34 L18.57,5.34 L18.57,7.98 Z" id="Path"></path>
                <path d="M25.65,5.34 L26.55,5.34 C28.61,5.34 29.64,6.33 29.64,8.31 L29.64,20.07 L26.22,20.07 L26.22,8.79 C26.22,8.47 26.16,8.255 26.04,8.145 C25.92,8.035 25.7,7.98 25.38,7.98 L24.48,7.98 C23.86,7.98 23.55,8.31 23.55,8.97 L23.55,20.07 L20.16,20.07 L20.16,0 L23.55,0 L23.55,6.6 C23.85,5.76 24.55,5.34 25.65,5.34 Z" id="Path"></path>
                <path d="M35.25,5.34 L38.43,5.34 C40.59,5.34 41.67,6.33 41.67,8.31 L41.67,13.68 L35.28,13.68 L35.28,16.71 C35.28,17.03 35.335,17.245 35.445,17.355 C35.555,17.465 35.78,17.52 36.12,17.52 L37.5,17.52 C37.82,17.52 38.04,17.465 38.16,17.355 C38.28,17.245 38.34,17.03 38.34,16.71 L38.34,15.6 L41.64,15.6 L41.64,17.1 C41.64,19.08 40.55,20.07 38.37,20.07 L35.25,20.07 C33.07,20.07 31.98,19.08 31.98,17.1 L31.98,8.31 C31.98,6.33 33.07,5.34 35.25,5.34 Z M35.28,11.49 L38.4,11.49 L38.4,8.67 C38.4,8.35 38.34,8.135 38.22,8.025 C38.1,7.915 37.88,7.86 37.56,7.86 L36.12,7.86 C35.8,7.86 35.58,7.915 35.46,8.025 C35.34,8.135 35.28,8.35 35.28,8.67 L35.28,11.49 Z" id="Shape"></path>
                <path d="M49.89,5.28 L50.43,5.28 L50.43,8.22 L49.17,8.22 C47.91,8.22 47.28,8.94 47.28,10.38 L47.28,20.07 L43.89,20.07 L43.89,5.34 L47.25,5.34 L47.25,7.23 C47.41,6.65 47.72,6.18 48.18,5.82 C48.64,5.46 49.21,5.28 49.89,5.28 Z" id="Path"></path>
            </g>
            <g id="Other" transform="translate(467.32, -0)" fill="#000000" fill-rule="nonzero">
                <path d="M3.27,1.14 L6.93,1.14 C9.11,1.14 10.2,2.13 10.2,4.11 L10.2,17.1 C10.2,19.08 9.11,20.07 6.93,20.07 L3.27,20.07 C1.09,20.07 0,19.08 0,17.1 L0,4.11 C0,2.13 1.09,1.14 3.27,1.14 Z M6.75,16.62 L6.75,4.59 C6.75,4.27 6.69,4.055 6.57,3.945 C6.45,3.835 6.23,3.78 5.91,3.78 L4.32,3.78 C3.98,3.78 3.75,3.835 3.63,3.945 C3.51,4.055 3.45,4.27 3.45,4.59 L3.45,16.62 C3.45,16.94 3.51,17.155 3.63,17.265 C3.75,17.375 3.98,17.43 4.32,17.43 L5.91,17.43 C6.23,17.43 6.45,17.375 6.57,17.265 C6.69,17.155 6.75,16.94 6.75,16.62 Z" id="Shape"></path>
                <path d="M18.57,7.98 L16.56,7.98 L16.56,16.53 C16.56,16.85 16.62,17.065 16.74,17.175 C16.86,17.285 17.09,17.34 17.43,17.34 L18.54,17.34 L18.54,20.07 L16.44,20.07 C14.26,20.07 13.17,19.08 13.17,17.1 L13.17,7.98 L11.7,7.98 L11.7,5.34 L13.17,5.34 L13.17,2.7 L16.56,2.7 L16.56,5.34 L18.57,5.34 L18.57,7.98 Z" id="Path"></path>
                <path d="M25.65,5.34 L26.55,5.34 C28.61,5.34 29.64,6.33 29.64,8.31 L29.64,20.07 L26.22,20.07 L26.22,8.79 C26.22,8.47 26.16,8.255 26.04,8.145 C25.92,8.035 25.7,7.98 25.38,7.98 L24.48,7.98 C23.86,7.98 23.55,8.31 23.55,8.97 L23.55,20.07 L20.16,20.07 L20.16,0 L23.55,0 L23.55,6.6 C23.85,5.76 24.55,5.34 25.65,5.34 Z" id="Path"></path>
                <path d="M35.25,5.34 L38.43,5.34 C40.59,5.34 41.67,6.33 41.67,8.31 L41.67,13.68 L35.28,13.68 L35.28,16.71 C35.28,17.03 35.335,17.245 35.445,17.355 C35.555,17.465 35.78,17.52 36.12,17.52 L37.5,17.52 C37.82,17.52 38.04,17.465 38.16,17.355 C38.28,17.245 38.34,17.03 38.34,16.71 L38.34,15.6 L41.64,15.6 L41.64,17.1 C41.64,19.08 40.55,20.07 38.37,20.07 L35.25,20.07 C33.07,20.07 31.98,19.08 31.98,17.1 L31.98,8.31 C31.98,6.33 33.07,5.34 35.25,5.34 Z M35.28,11.49 L38.4,11.49 L38.4,8.67 C38.4,8.35 38.34,8.135 38.22,8.025 C38.1,7.915 37.88,7.86 37.56,7.86 L36.12,7.86 C35.8,7.86 35.58,7.915 35.46,8.025 C35.34,8.135 35.28,8.35 35.28,8.67 L35.28,11.49 Z" id="Shape"></path>
                <path d="M49.89,5.28 L50.43,5.28 L50.43,8.22 L49.17,8.22 C47.91,8.22 47.28,8.94 47.28,10.38 L47.28,20.07 L43.89,20.07 L43.89,5.34 L47.25,5.34 L47.25,7.23 C47.41,6.65 47.72,6.18 48.18,5.82 C48.64,5.46 49.21,5.28 49.89,5.28 Z" id="Path"></path>
            </g>
            <g id="Other" transform="translate(616.32, -0)" fill="#000000" fill-rule="nonzero">
                <path d="M3.27,1.14 L6.93,1.14 C9.11,1.14 10.2,2.13 10.2,4.11 L10.2,17.1 C10.2,19.08 9.11,20.07 6.93,20.07 L3.27,20.07 C1.09,20.07 0,19.08 0,17.1 L0,4.11 C0,2.13 1.09,1.14 3.27,1.14 Z M6.75,16.62 L6.75,4.59 C6.75,4.27 6.69,4.055 6.57,3.945 C6.45,3.835 6.23,3.78 5.91,3.78 L4.32,3.78 C3.98,3.78 3.75,3.835 3.63,3.945 C3.51,4.055 3.45,4.27 3.45,4.59 L3.45,16.62 C3.45,16.94 3.51,17.155 3.63,17.265 C3.75,17.375 3.98,17.43 4.32,17.43 L5.91,17.43 C6.23,17.43 6.45,17.375 6.57,17.265 C6.69,17.155 6.75,16.94 6.75,16.62 Z" id="Shape"></path>
                <path d="M18.57,7.98 L16.56,7.98 L16.56,16.53 C16.56,16.85 16.62,17.065 16.74,17.175 C16.86,17.285 17.09,17.34 17.43,17.34 L18.54,17.34 L18.54,20.07 L16.44,20.07 C14.26,20.07 13.17,19.08 13.17,17.1 L13.17,7.98 L11.7,7.98 L11.7,5.34 L13.17,5.34 L13.17,2.7 L16.56,2.7 L16.56,5.34 L18.57,5.34 L18.57,7.98 Z" id="Path"></path>
                <path d="M25.65,5.34 L26.55,5.34 C28.61,5.34 29.64,6.33 29.64,8.31 L29.64,20.07 L26.22,20.07 L26.22,8.79 C26.22,8.47 26.16,8.255 26.04,8.145 C25.92,8.035 25.7,7.98 25.38,7.98 L24.48,7.98 C23.86,7.98 23.55,8.31 23.55,8.97 L23.55,20.07 L20.16,20.07 L20.16,0 L23.55,0 L23.55,6.6 C23.85,5.76 24.55,5.34 25.65,5.34 Z" id="Path"></path>
                <path d="M35.25,5.34 L38.43,5.34 C40.59,5.34 41.67,6.33 41.67,8.31 L41.67,13.68 L35.28,13.68 L35.28,16.71 C35.28,17.03 35.335,17.245 35.445,17.355 C35.555,17.465 35.78,17.52 36.12,17.52 L37.5,17.52 C37.82,17.52 38.04,17.465 38.16,17.355 C38.28,17.245 38.34,17.03 38.34,16.71 L38.34,15.6 L41.64,15.6 L41.64,17.1 C41.64,19.08 40.55,20.07 38.37,20.07 L35.25,20.07 C33.07,20.07 31.98,19.08 31.98,17.1 L31.98,8.31 C31.98,6.33 33.07,5.34 35.25,5.34 Z M35.28,11.49 L38.4,11.49 L38.4,8.67 C38.4,8.35 38.34,8.135 38.22,8.025 C38.1,7.915 37.88,7.86 37.56,7.86 L36.12,7.86 C35.8,7.86 35.58,7.915 35.46,8.025 C35.34,8.135 35.28,8.35 35.28,8.67 L35.28,11.49 Z" id="Shape"></path>
                <path d="M49.89,5.28 L50.43,5.28 L50.43,8.22 L49.17,8.22 C47.91,8.22 47.28,8.94 47.28,10.38 L47.28,20.07 L43.89,20.07 L43.89,5.34 L47.25,5.34 L47.25,7.23 C47.41,6.65 47.72,6.18 48.18,5.82 C48.64,5.46 49.21,5.28 49.89,5.28 Z" id="Path"></path>
            </g>
            <g id="Compiled" transform="translate(606.63, 63.028)" fill="#FFFFFF" fill-rule="nonzero">
                <path d="M7.83,4.806 L4.68,4.806 L4.68,2.952 C4.68,2.688 4.53,2.556 4.23,2.556 L3.6,2.556 C3.3,2.556 3.15,2.688 3.15,2.952 L3.15,9.576 C3.15,9.84 3.3,9.972 3.6,9.972 L4.23,9.972 C4.53,9.972 4.68,9.84 4.68,9.576 L4.68,7.794 L7.83,7.794 L7.83,9.81 C7.83,11.298 6.948,12.042 5.184,12.042 L2.646,12.042 C0.882,12.042 0,11.298 0,9.81 L0,2.718 C0,1.23 0.882,0.486 2.646,0.486 L5.184,0.486 C6.948,0.486 7.83,1.23 7.83,2.718 L7.83,4.806 Z" id="Path"></path>
                <path d="M11.466,3.06 L13.752,3.06 C14.664,3.06 15.318,3.252 15.714,3.636 C16.11,4.02 16.308,4.572 16.308,5.292 L16.308,9.81 C16.308,10.53 16.11,11.082 15.714,11.466 C15.318,11.85 14.664,12.042 13.752,12.042 L11.466,12.042 C10.554,12.042 9.9,11.85 9.504,11.466 C9.108,11.082 8.91,10.53 8.91,9.81 L8.91,5.292 C8.91,4.572 9.108,4.02 9.504,3.636 C9.9,3.252 10.554,3.06 11.466,3.06 Z M13.302,9.522 L13.302,5.58 C13.302,5.316 13.152,5.184 12.852,5.184 L12.366,5.184 C12.066,5.184 11.916,5.316 11.916,5.58 L11.916,9.522 C11.916,9.786 12.066,9.918 12.366,9.918 L12.852,9.918 C13.152,9.918 13.302,9.786 13.302,9.522 Z" id="Shape"></path>
                <path d="M26.604,3.06 L26.928,3.06 C28.524,3.06 29.322,3.804 29.322,5.292 L29.322,12.042 L26.262,12.042 L26.262,5.706 C26.262,5.442 26.112,5.31 25.812,5.31 L25.506,5.31 C25.182,5.31 25.02,5.49 25.02,5.85 L25.02,12.042 L21.96,12.042 L21.96,5.706 C21.96,5.442 21.81,5.31 21.51,5.31 L21.204,5.31 C20.88,5.31 20.718,5.49 20.718,5.85 L20.718,12.042 L17.658,12.042 L17.658,3.06 L20.664,3.06 L20.664,4.212 C20.832,3.444 21.378,3.06 22.302,3.06 L22.626,3.06 C23.742,3.06 24.474,3.438 24.822,4.194 C24.918,3.846 25.128,3.57 25.452,3.366 C25.776,3.162 26.16,3.06 26.604,3.06 Z" id="Path"></path>
                <path d="M35.316,3.06 L35.64,3.06 C37.236,3.06 38.034,3.804 38.034,5.292 L38.034,9.81 C38.034,11.298 37.236,12.042 35.64,12.042 L35.316,12.042 C34.488,12.042 33.96,11.718 33.732,11.07 L33.732,14.364 L30.672,14.364 L30.672,3.06 L33.678,3.06 L33.678,4.212 C33.846,3.444 34.392,3.06 35.316,3.06 Z M34.974,9.396 L34.974,5.706 C34.974,5.442 34.824,5.31 34.524,5.31 L34.218,5.31 C33.894,5.31 33.732,5.49 33.732,5.85 L33.732,9.252 C33.732,9.612 33.894,9.792 34.218,9.792 L34.524,9.792 C34.824,9.792 34.974,9.66 34.974,9.396 Z" id="Shape"></path>
                <path d="M39.24,2.16 L39.24,0 L42.408,0 L42.408,2.16 L39.24,2.16 Z M42.354,12.042 L39.294,12.042 L39.294,3.06 L42.354,3.06 L42.354,12.042 Z" id="Shape"></path>
                <polygon id="Path" points="46.854 12.042 43.794 12.042 43.794 0 46.854 0"></polygon>
                <path d="M50.76,3.06 L52.956,3.06 C54.72,3.06 55.602,3.804 55.602,5.292 L55.602,8.352 L51.012,8.352 L51.012,9.54 C51.012,9.804 51.162,9.936 51.462,9.936 L52.254,9.936 C52.554,9.936 52.704,9.792 52.704,9.504 L52.704,9 L55.602,9 L55.602,9.81 C55.602,11.298 54.72,12.042 52.956,12.042 L50.76,12.042 C48.996,12.042 48.114,11.298 48.114,9.81 L48.114,5.292 C48.114,3.804 48.996,3.06 50.76,3.06 Z M51.012,6.696 L52.704,6.696 L52.704,5.562 C52.704,5.298 52.554,5.166 52.254,5.166 L51.462,5.166 C51.162,5.166 51.012,5.298 51.012,5.562 L51.012,6.696 Z" id="Shape"></path>
                <path d="M60.894,0 L63.954,0 L63.954,12.042 L60.948,12.042 L60.948,10.89 C60.78,11.658 60.234,12.042 59.31,12.042 L58.986,12.042 C57.39,12.042 56.592,11.298 56.592,9.81 L56.592,5.292 C56.592,3.804 57.39,3.06 58.986,3.06 L59.31,3.06 C60.138,3.06 60.666,3.384 60.894,4.032 L60.894,0 Z M60.102,9.792 L60.408,9.792 C60.732,9.792 60.894,9.612 60.894,9.252 L60.894,5.85 C60.894,5.49 60.732,5.31 60.408,5.31 L60.102,5.31 C59.802,5.31 59.652,5.442 59.652,5.706 L59.652,9.396 C59.652,9.66 59.802,9.792 60.102,9.792 Z" id="Shape"></path>
            </g>
            <polygon id="Triangle" fill="#337FCC" transform="translate(63, 37.07) rotate(-180) translate(-63, -37.07)" points="63 27.07 75 47.07 51 47.07"></polygon>
            <polygon id="Triangle" fill="#337FCC" transform="translate(343, 37.07) rotate(-180) translate(-343, -37.07)" points="343 27.07 355 47.07 331 47.07"></polygon>
            <polygon id="Triangle" fill="#337FCC" transform="translate(492, 37.07) rotate(-180) translate(-492, -37.07)" points="492 27.07 505 47.07 479 47.07"></polygon>
            <polygon id="Triangle" fill="#337FCC" transform="translate(642, 37.07) rotate(-180) translate(-642, -37.07)" points="642 27.07 655 47.07 629 47.07"></polygon>
            <rect id="Rectangle" stroke="#2C353E" fill="url(#linearGradient-1)" x="0" y="186.07" width="680" height="25" rx="5"></rect>
            <g id="Not-Compiled" transform="translate(5.72, 193.028)" fill="#000000" fill-rule="nonzero">
                <polygon id="Path" points="5.274 0.486 8.154 0.486 8.154 12.042 5.454 12.042 2.88 5.976 2.88 12.042 0 12.042 0 0.486 2.7 0.486 5.274 6.66"></polygon>
                <path d="M12.06,3.06 L14.346,3.06 C15.258,3.06 15.912,3.252 16.308,3.636 C16.704,4.02 16.902,4.572 16.902,5.292 L16.902,9.81 C16.902,10.53 16.704,11.082 16.308,11.466 C15.912,11.85 15.258,12.042 14.346,12.042 L12.06,12.042 C11.148,12.042 10.494,11.85 10.098,11.466 C9.702,11.082 9.504,10.53 9.504,9.81 L9.504,5.292 C9.504,4.572 9.702,4.02 10.098,3.636 C10.494,3.252 11.148,3.06 12.06,3.06 Z M13.896,9.522 L13.896,5.58 C13.896,5.316 13.746,5.184 13.446,5.184 L12.96,5.184 C12.66,5.184 12.51,5.316 12.51,5.58 L12.51,9.522 C12.51,9.786 12.66,9.918 12.96,9.918 L13.446,9.918 C13.746,9.918 13.896,9.786 13.896,9.522 Z" id="Shape"></path>
                <path d="M22.806,5.31 L21.672,5.31 L21.672,9.396 C21.672,9.66 21.822,9.792 22.122,9.792 L22.788,9.792 L22.788,12.042 L21.258,12.042 C19.494,12.042 18.612,11.298 18.612,9.81 L18.612,5.31 L17.622,5.31 L17.622,3.06 L18.612,3.06 L18.612,1.296 L21.672,1.296 L21.672,3.06 L22.806,3.06 L22.806,5.31 Z" id="Path"></path>
                <path d="M35.046,4.806 L31.896,4.806 L31.896,2.952 C31.896,2.688 31.746,2.556 31.446,2.556 L30.816,2.556 C30.516,2.556 30.366,2.688 30.366,2.952 L30.366,9.576 C30.366,9.84 30.516,9.972 30.816,9.972 L31.446,9.972 C31.746,9.972 31.896,9.84 31.896,9.576 L31.896,7.794 L35.046,7.794 L35.046,9.81 C35.046,11.298 34.164,12.042 32.4,12.042 L29.862,12.042 C28.098,12.042 27.216,11.298 27.216,9.81 L27.216,2.718 C27.216,1.23 28.098,0.486 29.862,0.486 L32.4,0.486 C34.164,0.486 35.046,1.23 35.046,2.718 L35.046,4.806 Z" id="Path"></path>
                <path d="M38.682,3.06 L40.968,3.06 C41.88,3.06 42.534,3.252 42.93,3.636 C43.326,4.02 43.524,4.572 43.524,5.292 L43.524,9.81 C43.524,10.53 43.326,11.082 42.93,11.466 C42.534,11.85 41.88,12.042 40.968,12.042 L38.682,12.042 C37.77,12.042 37.116,11.85 36.72,11.466 C36.324,11.082 36.126,10.53 36.126,9.81 L36.126,5.292 C36.126,4.572 36.324,4.02 36.72,3.636 C37.116,3.252 37.77,3.06 38.682,3.06 Z M40.518,9.522 L40.518,5.58 C40.518,5.316 40.368,5.184 40.068,5.184 L39.582,5.184 C39.282,5.184 39.132,5.316 39.132,5.58 L39.132,9.522 C39.132,9.786 39.282,9.918 39.582,9.918 L40.068,9.918 C40.368,9.918 40.518,9.786 40.518,9.522 Z" id="Shape"></path>
                <path d="M53.82,3.06 L54.144,3.06 C55.74,3.06 56.538,3.804 56.538,5.292 L56.538,12.042 L53.478,12.042 L53.478,5.706 C53.478,5.442 53.328,5.31 53.028,5.31 L52.722,5.31 C52.398,5.31 52.236,5.49 52.236,5.85 L52.236,12.042 L49.176,12.042 L49.176,5.706 C49.176,5.442 49.026,5.31 48.726,5.31 L48.42,5.31 C48.096,5.31 47.934,5.49 47.934,5.85 L47.934,12.042 L44.874,12.042 L44.874,3.06 L47.88,3.06 L47.88,4.212 C48.048,3.444 48.594,3.06 49.518,3.06 L49.842,3.06 C50.958,3.06 51.69,3.438 52.038,4.194 C52.134,3.846 52.344,3.57 52.668,3.366 C52.992,3.162 53.376,3.06 53.82,3.06 Z" id="Path"></path>
                <path d="M62.532,3.06 L62.856,3.06 C64.452,3.06 65.25,3.804 65.25,5.292 L65.25,9.81 C65.25,11.298 64.452,12.042 62.856,12.042 L62.532,12.042 C61.704,12.042 61.176,11.718 60.948,11.07 L60.948,14.364 L57.888,14.364 L57.888,3.06 L60.894,3.06 L60.894,4.212 C61.062,3.444 61.608,3.06 62.532,3.06 Z M62.19,9.396 L62.19,5.706 C62.19,5.442 62.04,5.31 61.74,5.31 L61.434,5.31 C61.11,5.31 60.948,5.49 60.948,5.85 L60.948,9.252 C60.948,9.612 61.11,9.792 61.434,9.792 L61.74,9.792 C62.04,9.792 62.19,9.66 62.19,9.396 Z" id="Shape"></path>
                <path d="M66.456,2.16 L66.456,0 L69.624,0 L69.624,2.16 L66.456,2.16 Z M69.57,12.042 L66.51,12.042 L66.51,3.06 L69.57,3.06 L69.57,12.042 Z" id="Shape"></path>
                <polygon id="Path" points="74.07 12.042 71.01 12.042 71.01 0 74.07 0"></polygon>
                <path d="M77.976,3.06 L80.172,3.06 C81.936,3.06 82.818,3.804 82.818,5.292 L82.818,8.352 L78.228,8.352 L78.228,9.54 C78.228,9.804 78.378,9.936 78.678,9.936 L79.47,9.936 C79.77,9.936 79.92,9.792 79.92,9.504 L79.92,9 L82.818,9 L82.818,9.81 C82.818,11.298 81.936,12.042 80.172,12.042 L77.976,12.042 C76.212,12.042 75.33,11.298 75.33,9.81 L75.33,5.292 C75.33,3.804 76.212,3.06 77.976,3.06 Z M78.228,6.696 L79.92,6.696 L79.92,5.562 C79.92,5.298 79.77,5.166 79.47,5.166 L78.678,5.166 C78.378,5.166 78.228,5.298 78.228,5.562 L78.228,6.696 Z" id="Shape"></path>
                <path d="M88.11,0 L91.17,0 L91.17,12.042 L88.164,12.042 L88.164,10.89 C87.996,11.658 87.45,12.042 86.526,12.042 L86.202,12.042 C84.606,12.042 83.808,11.298 83.808,9.81 L83.808,5.292 C83.808,3.804 84.606,3.06 86.202,3.06 L86.526,3.06 C87.354,3.06 87.882,3.384 88.11,4.032 L88.11,0 Z M87.318,9.792 L87.624,9.792 C87.948,9.792 88.11,9.612 88.11,9.252 L88.11,5.85 C88.11,5.49 87.948,5.31 87.624,5.31 L87.318,5.31 C87.018,5.31 86.868,5.442 86.868,5.706 L86.868,9.396 C86.868,9.66 87.018,9.792 87.318,9.792 Z" id="Shape"></path>
            </g>
            <g id="React-19" transform="translate(173.44, 131.14)" fill="#000000" fill-rule="nonzero">
                <path d="M3.45,11.55 L3.45,18.93 L0,18.93 L0,0 L6.96,0 C9.14,0 10.23,0.99 10.23,2.97 L10.23,8.58 C10.23,10.22 9.5,11.18 8.04,11.46 L11.19,18.93 L7.47,18.93 L4.59,11.55 L3.45,11.55 Z M3.45,2.64 L3.45,9 L5.94,9 C6.26,9 6.48,8.945 6.6,8.835 C6.72,8.725 6.78,8.51 6.78,8.19 L6.78,3.45 C6.78,3.13 6.72,2.915 6.6,2.805 C6.48,2.695 6.26,2.64 5.94,2.64 L3.45,2.64 Z" id="Shape"></path>
                <path d="M15.87,4.2 L19.05,4.2 C21.21,4.2 22.29,5.19 22.29,7.17 L22.29,12.54 L15.9,12.54 L15.9,15.57 C15.9,15.89 15.955,16.105 16.065,16.215 C16.175,16.325 16.4,16.38 16.74,16.38 L18.12,16.38 C18.44,16.38 18.66,16.325 18.78,16.215 C18.9,16.105 18.96,15.89 18.96,15.57 L18.96,14.46 L22.26,14.46 L22.26,15.96 C22.26,17.94 21.17,18.93 18.99,18.93 L15.87,18.93 C13.69,18.93 12.6,17.94 12.6,15.96 L12.6,7.17 C12.6,5.19 13.69,4.2 15.87,4.2 Z M15.9,10.35 L19.02,10.35 L19.02,7.53 C19.02,7.21 18.96,6.995 18.84,6.885 C18.72,6.775 18.5,6.72 18.18,6.72 L16.74,6.72 C16.42,6.72 16.2,6.775 16.08,6.885 C15.96,6.995 15.9,7.21 15.9,7.53 L15.9,10.35 Z" id="Shape"></path>
                <path d="M30.42,4.2 L33.78,4.2 L33.78,18.93 L30.36,18.93 L30.36,17.67 C30.06,18.51 29.37,18.93 28.29,18.93 L27.36,18.93 C25.32,18.93 24.3,17.94 24.3,15.96 L24.3,7.17 C24.3,5.19 25.32,4.2 27.36,4.2 L28.29,4.2 C29.47,4.2 30.18,4.68 30.42,5.64 L30.42,4.2 Z M28.53,16.29 L29.43,16.29 C30.05,16.29 30.36,15.96 30.36,15.3 L30.36,7.83 C30.36,7.17 30.05,6.84 29.43,6.84 L28.53,6.84 C28.21,6.84 27.99,6.895 27.87,7.005 C27.75,7.115 27.69,7.33 27.69,7.65 L27.69,15.48 C27.69,15.8 27.75,16.015 27.87,16.125 C27.99,16.235 28.21,16.29 28.53,16.29 Z" id="Shape"></path>
                <path d="M45.6,9.15 L42.27,9.15 L42.27,7.65 C42.27,7.33 42.21,7.115 42.09,7.005 C41.97,6.895 41.75,6.84 41.43,6.84 L40.35,6.84 C40.03,6.84 39.81,6.895 39.69,7.005 C39.57,7.115 39.51,7.33 39.51,7.65 L39.51,15.48 C39.51,15.8 39.57,16.015 39.69,16.125 C39.81,16.235 40.03,16.29 40.35,16.29 L41.43,16.29 C41.75,16.29 41.97,16.235 42.09,16.125 C42.21,16.015 42.27,15.8 42.27,15.48 L42.27,13.95 L45.6,13.95 L45.6,15.96 C45.6,17.94 44.51,18.93 42.33,18.93 L39.39,18.93 C37.21,18.93 36.12,17.94 36.12,15.96 L36.12,7.17 C36.12,5.19 37.21,4.2 39.39,4.2 L42.33,4.2 C44.51,4.2 45.6,5.19 45.6,7.17 L45.6,9.15 Z" id="Path"></path>
                <path d="M53.46,6.84 L51.45,6.84 L51.45,15.39 C51.45,15.71 51.51,15.925 51.63,16.035 C51.75,16.145 51.98,16.2 52.32,16.2 L53.43,16.2 L53.43,18.93 L51.33,18.93 C49.15,18.93 48.06,17.94 48.06,15.96 L48.06,6.84 L46.59,6.84 L46.59,4.2 L48.06,4.2 L48.06,1.56 L51.45,1.56 L51.45,4.2 L53.46,4.2 L53.46,6.84 Z" id="Path"></path>
                <polygon id="Path" points="64.95 0 64.95 18.93 61.5 18.93 61.5 2.64 59.16 2.64 59.16 0"></polygon>
                <path d="M70.74,0 L74.13,0 C76.31,0 77.4,0.99 77.4,2.97 L77.4,15.96 C77.4,17.94 76.31,18.93 74.13,18.93 L70.86,18.93 C68.68,18.93 67.59,17.94 67.59,15.96 L67.59,13.11 L70.98,13.11 L70.98,15.48 C70.98,15.8 71.04,16.015 71.16,16.125 C71.28,16.235 71.5,16.29 71.82,16.29 L73.17,16.29 C73.49,16.29 73.71,16.235 73.83,16.125 C73.95,16.015 74.01,15.8 74.01,15.48 L74.01,11.31 L70.74,11.31 C68.56,11.31 67.47,10.32 67.47,8.34 L67.47,2.97 C67.47,0.99 68.56,0 70.74,0 Z M71.7,8.82 L74.01,8.82 L74.01,3.45 C74.01,3.13 73.95,2.915 73.83,2.805 C73.71,2.695 73.49,2.64 73.17,2.64 L71.7,2.64 C71.38,2.64 71.16,2.695 71.04,2.805 C70.92,2.915 70.86,3.13 70.86,3.45 L70.86,8.01 C70.86,8.33 70.92,8.545 71.04,8.655 C71.16,8.765 71.38,8.82 71.7,8.82 Z" id="Shape"></path>
            </g>
            <g id="Other" transform="translate(318.32, 130)" fill="#000000" fill-rule="nonzero">
                <path d="M3.27,1.14 L6.93,1.14 C9.11,1.14 10.2,2.13 10.2,4.11 L10.2,17.1 C10.2,19.08 9.11,20.07 6.93,20.07 L3.27,20.07 C1.09,20.07 5.68434189e-14,19.08 5.68434189e-14,17.1 L5.68434189e-14,4.11 C5.68434189e-14,2.13 1.09,1.14 3.27,1.14 Z M6.75,16.62 L6.75,4.59 C6.75,4.27 6.69,4.055 6.57,3.945 C6.45,3.835 6.23,3.78 5.91,3.78 L4.32,3.78 C3.98,3.78 3.75,3.835 3.63,3.945 C3.51,4.055 3.45,4.27 3.45,4.59 L3.45,16.62 C3.45,16.94 3.51,17.155 3.63,17.265 C3.75,17.375 3.98,17.43 4.32,17.43 L5.91,17.43 C6.23,17.43 6.45,17.375 6.57,17.265 C6.69,17.155 6.75,16.94 6.75,16.62 Z" id="Shape"></path>
                <path d="M18.57,7.98 L16.56,7.98 L16.56,16.53 C16.56,16.85 16.62,17.065 16.74,17.175 C16.86,17.285 17.09,17.34 17.43,17.34 L18.54,17.34 L18.54,20.07 L16.44,20.07 C14.26,20.07 13.17,19.08 13.17,17.1 L13.17,7.98 L11.7,7.98 L11.7,5.34 L13.17,5.34 L13.17,2.7 L16.56,2.7 L16.56,5.34 L18.57,5.34 L18.57,7.98 Z" id="Path"></path>
                <path d="M25.65,5.34 L26.55,5.34 C28.61,5.34 29.64,6.33 29.64,8.31 L29.64,20.07 L26.22,20.07 L26.22,8.79 C26.22,8.47 26.16,8.255 26.04,8.145 C25.92,8.035 25.7,7.98 25.38,7.98 L24.48,7.98 C23.86,7.98 23.55,8.31 23.55,8.97 L23.55,20.07 L20.16,20.07 L20.16,0 L23.55,0 L23.55,6.6 C23.85,5.76 24.55,5.34 25.65,5.34 Z" id="Path"></path>
                <path d="M35.25,5.34 L38.43,5.34 C40.59,5.34 41.67,6.33 41.67,8.31 L41.67,13.68 L35.28,13.68 L35.28,16.71 C35.28,17.03 35.335,17.245 35.445,17.355 C35.555,17.465 35.78,17.52 36.12,17.52 L37.5,17.52 C37.82,17.52 38.04,17.465 38.16,17.355 C38.28,17.245 38.34,17.03 38.34,16.71 L38.34,15.6 L41.64,15.6 L41.64,17.1 C41.64,19.08 40.55,20.07 38.37,20.07 L35.25,20.07 C33.07,20.07 31.98,19.08 31.98,17.1 L31.98,8.31 C31.98,6.33 33.07,5.34 35.25,5.34 Z M35.28,11.49 L38.4,11.49 L38.4,8.67 C38.4,8.35 38.34,8.135 38.22,8.025 C38.1,7.915 37.88,7.86 37.56,7.86 L36.12,7.86 C35.8,7.86 35.58,7.915 35.46,8.025 C35.34,8.135 35.28,8.35 35.28,8.67 L35.28,11.49 Z" id="Shape"></path>
                <path d="M49.89,5.28 L50.43,5.28 L50.43,8.22 L49.17,8.22 C47.91,8.22 47.28,8.94 47.28,10.38 L47.28,20.07 L43.89,20.07 L43.89,5.34 L47.25,5.34 L47.25,7.23 C47.41,6.65 47.72,6.18 48.18,5.82 C48.64,5.46 49.21,5.28 49.89,5.28 Z" id="Path"></path>
            </g>
            <g id="Other" transform="translate(467.32, 130)" fill="#000000" fill-rule="nonzero">
                <path d="M3.27,1.14 L6.93,1.14 C9.11,1.14 10.2,2.13 10.2,4.11 L10.2,17.1 C10.2,19.08 9.11,20.07 6.93,20.07 L3.27,20.07 C1.09,20.07 0,19.08 0,17.1 L0,4.11 C0,2.13 1.09,1.14 3.27,1.14 Z M6.75,16.62 L6.75,4.59 C6.75,4.27 6.69,4.055 6.57,3.945 C6.45,3.835 6.23,3.78 5.91,3.78 L4.32,3.78 C3.98,3.78 3.75,3.835 3.63,3.945 C3.51,4.055 3.45,4.27 3.45,4.59 L3.45,16.62 C3.45,16.94 3.51,17.155 3.63,17.265 C3.75,17.375 3.98,17.43 4.32,17.43 L5.91,17.43 C6.23,17.43 6.45,17.375 6.57,17.265 C6.69,17.155 6.75,16.94 6.75,16.62 Z" id="Shape"></path>
                <path d="M18.57,7.98 L16.56,7.98 L16.56,16.53 C16.56,16.85 16.62,17.065 16.74,17.175 C16.86,17.285 17.09,17.34 17.43,17.34 L18.54,17.34 L18.54,20.07 L16.44,20.07 C14.26,20.07 13.17,19.08 13.17,17.1 L13.17,7.98 L11.7,7.98 L11.7,5.34 L13.17,5.34 L13.17,2.7 L16.56,2.7 L16.56,5.34 L18.57,5.34 L18.57,7.98 Z" id="Path"></path>
                <path d="M25.65,5.34 L26.55,5.34 C28.61,5.34 29.64,6.33 29.64,8.31 L29.64,20.07 L26.22,20.07 L26.22,8.79 C26.22,8.47 26.16,8.255 26.04,8.145 C25.92,8.035 25.7,7.98 25.38,7.98 L24.48,7.98 C23.86,7.98 23.55,8.31 23.55,8.97 L23.55,20.07 L20.16,20.07 L20.16,0 L23.55,0 L23.55,6.6 C23.85,5.76 24.55,5.34 25.65,5.34 Z" id="Path"></path>
                <path d="M35.25,5.34 L38.43,5.34 C40.59,5.34 41.67,6.33 41.67,8.31 L41.67,13.68 L35.28,13.68 L35.28,16.71 C35.28,17.03 35.335,17.245 35.445,17.355 C35.555,17.465 35.78,17.52 36.12,17.52 L37.5,17.52 C37.82,17.52 38.04,17.465 38.16,17.355 C38.28,17.245 38.34,17.03 38.34,16.71 L38.34,15.6 L41.64,15.6 L41.64,17.1 C41.64,19.08 40.55,20.07 38.37,20.07 L35.25,20.07 C33.07,20.07 31.98,19.08 31.98,17.1 L31.98,8.31 C31.98,6.33 33.07,5.34 35.25,5.34 Z M35.28,11.49 L38.4,11.49 L38.4,8.67 C38.4,8.35 38.34,8.135 38.22,8.025 C38.1,7.915 37.88,7.86 37.56,7.86 L36.12,7.86 C35.8,7.86 35.58,7.915 35.46,8.025 C35.34,8.135 35.28,8.35 35.28,8.67 L35.28,11.49 Z" id="Shape"></path>
                <path d="M49.89,5.28 L50.43,5.28 L50.43,8.22 L49.17,8.22 C47.91,8.22 47.28,8.94 47.28,10.38 L47.28,20.07 L43.89,20.07 L43.89,5.34 L47.25,5.34 L47.25,7.23 C47.41,6.65 47.72,6.18 48.18,5.82 C48.64,5.46 49.21,5.28 49.89,5.28 Z" id="Path"></path>
            </g>
            <g id="Other" transform="translate(616.32, 130)" fill="#000000" fill-rule="nonzero">
                <path d="M3.27,1.14 L6.93,1.14 C9.11,1.14 10.2,2.13 10.2,4.11 L10.2,17.1 C10.2,19.08 9.11,20.07 6.93,20.07 L3.27,20.07 C1.09,20.07 0,19.08 0,17.1 L0,4.11 C0,2.13 1.09,1.14 3.27,1.14 Z M6.75,16.62 L6.75,4.59 C6.75,4.27 6.69,4.055 6.57,3.945 C6.45,3.835 6.23,3.78 5.91,3.78 L4.32,3.78 C3.98,3.78 3.75,3.835 3.63,3.945 C3.51,4.055 3.45,4.27 3.45,4.59 L3.45,16.62 C3.45,16.94 3.51,17.155 3.63,17.265 C3.75,17.375 3.98,17.43 4.32,17.43 L5.91,17.43 C6.23,17.43 6.45,17.375 6.57,17.265 C6.69,17.155 6.75,16.94 6.75,16.62 Z" id="Shape"></path>
                <path d="M18.57,7.98 L16.56,7.98 L16.56,16.53 C16.56,16.85 16.62,17.065 16.74,17.175 C16.86,17.285 17.09,17.34 17.43,17.34 L18.54,17.34 L18.54,20.07 L16.44,20.07 C14.26,20.07 13.17,19.08 13.17,17.1 L13.17,7.98 L11.7,7.98 L11.7,5.34 L13.17,5.34 L13.17,2.7 L16.56,2.7 L16.56,5.34 L18.57,5.34 L18.57,7.98 Z" id="Path"></path>
                <path d="M25.65,5.34 L26.55,5.34 C28.61,5.34 29.64,6.33 29.64,8.31 L29.64,20.07 L26.22,20.07 L26.22,8.79 C26.22,8.47 26.16,8.255 26.04,8.145 C25.92,8.035 25.7,7.98 25.38,7.98 L24.48,7.98 C23.86,7.98 23.55,8.31 23.55,8.97 L23.55,20.07 L20.16,20.07 L20.16,0 L23.55,0 L23.55,6.6 C23.85,5.76 24.55,5.34 25.65,5.34 Z" id="Path"></path>
                <path d="M35.25,5.34 L38.43,5.34 C40.59,5.34 41.67,6.33 41.67,8.31 L41.67,13.68 L35.28,13.68 L35.28,16.71 C35.28,17.03 35.335,17.245 35.445,17.355 C35.555,17.465 35.78,17.52 36.12,17.52 L37.5,17.52 C37.82,17.52 38.04,17.465 38.16,17.355 C38.28,17.245 38.34,17.03 38.34,16.71 L38.34,15.6 L41.64,15.6 L41.64,17.1 C41.64,19.08 40.55,20.07 38.37,20.07 L35.25,20.07 C33.07,20.07 31.98,19.08 31.98,17.1 L31.98,8.31 C31.98,6.33 33.07,5.34 35.25,5.34 Z M35.28,11.49 L38.4,11.49 L38.4,8.67 C38.4,8.35 38.34,8.135 38.22,8.025 C38.1,7.915 37.88,7.86 37.56,7.86 L36.12,7.86 C35.8,7.86 35.58,7.915 35.46,8.025 C35.34,8.135 35.28,8.35 35.28,8.67 L35.28,11.49 Z" id="Shape"></path>
                <path d="M49.89,5.28 L50.43,5.28 L50.43,8.22 L49.17,8.22 C47.91,8.22 47.28,8.94 47.28,10.38 L47.28,20.07 L43.89,20.07 L43.89,5.34 L47.25,5.34 L47.25,7.23 C47.41,6.65 47.72,6.18 48.18,5.82 C48.64,5.46 49.21,5.28 49.89,5.28 Z" id="Path"></path>
            </g>
            <g id="Compiled" transform="translate(606.63, 193.028)" fill="#FFFFFF" fill-rule="nonzero">
                <path d="M7.83,4.806 L4.68,4.806 L4.68,2.952 C4.68,2.688 4.53,2.556 4.23,2.556 L3.6,2.556 C3.3,2.556 3.15,2.688 3.15,2.952 L3.15,9.576 C3.15,9.84 3.3,9.972 3.6,9.972 L4.23,9.972 C4.53,9.972 4.68,9.84 4.68,9.576 L4.68,7.794 L7.83,7.794 L7.83,9.81 C7.83,11.298 6.948,12.042 5.184,12.042 L2.646,12.042 C0.882,12.042 0,11.298 0,9.81 L0,2.718 C0,1.23 0.882,0.486 2.646,0.486 L5.184,0.486 C6.948,0.486 7.83,1.23 7.83,2.718 L7.83,4.806 Z" id="Path"></path>
                <path d="M11.466,3.06 L13.752,3.06 C14.664,3.06 15.318,3.252 15.714,3.636 C16.11,4.02 16.308,4.572 16.308,5.292 L16.308,9.81 C16.308,10.53 16.11,11.082 15.714,11.466 C15.318,11.85 14.664,12.042 13.752,12.042 L11.466,12.042 C10.554,12.042 9.9,11.85 9.504,11.466 C9.108,11.082 8.91,10.53 8.91,9.81 L8.91,5.292 C8.91,4.572 9.108,4.02 9.504,3.636 C9.9,3.252 10.554,3.06 11.466,3.06 Z M13.302,9.522 L13.302,5.58 C13.302,5.316 13.152,5.184 12.852,5.184 L12.366,5.184 C12.066,5.184 11.916,5.316 11.916,5.58 L11.916,9.522 C11.916,9.786 12.066,9.918 12.366,9.918 L12.852,9.918 C13.152,9.918 13.302,9.786 13.302,9.522 Z" id="Shape"></path>
                <path d="M26.604,3.06 L26.928,3.06 C28.524,3.06 29.322,3.804 29.322,5.292 L29.322,12.042 L26.262,12.042 L26.262,5.706 C26.262,5.442 26.112,5.31 25.812,5.31 L25.506,5.31 C25.182,5.31 25.02,5.49 25.02,5.85 L25.02,12.042 L21.96,12.042 L21.96,5.706 C21.96,5.442 21.81,5.31 21.51,5.31 L21.204,5.31 C20.88,5.31 20.718,5.49 20.718,5.85 L20.718,12.042 L17.658,12.042 L17.658,3.06 L20.664,3.06 L20.664,4.212 C20.832,3.444 21.378,3.06 22.302,3.06 L22.626,3.06 C23.742,3.06 24.474,3.438 24.822,4.194 C24.918,3.846 25.128,3.57 25.452,3.366 C25.776,3.162 26.16,3.06 26.604,3.06 Z" id="Path"></path>
                <path d="M35.316,3.06 L35.64,3.06 C37.236,3.06 38.034,3.804 38.034,5.292 L38.034,9.81 C38.034,11.298 37.236,12.042 35.64,12.042 L35.316,12.042 C34.488,12.042 33.96,11.718 33.732,11.07 L33.732,14.364 L30.672,14.364 L30.672,3.06 L33.678,3.06 L33.678,4.212 C33.846,3.444 34.392,3.06 35.316,3.06 Z M34.974,9.396 L34.974,5.706 C34.974,5.442 34.824,5.31 34.524,5.31 L34.218,5.31 C33.894,5.31 33.732,5.49 33.732,5.85 L33.732,9.252 C33.732,9.612 33.894,9.792 34.218,9.792 L34.524,9.792 C34.824,9.792 34.974,9.66 34.974,9.396 Z" id="Shape"></path>
                <path d="M39.24,2.16 L39.24,0 L42.408,0 L42.408,2.16 L39.24,2.16 Z M42.354,12.042 L39.294,12.042 L39.294,3.06 L42.354,3.06 L42.354,12.042 Z" id="Shape"></path>
                <polygon id="Path" points="46.854 12.042 43.794 12.042 43.794 0 46.854 0"></polygon>
                <path d="M50.76,3.06 L52.956,3.06 C54.72,3.06 55.602,3.804 55.602,5.292 L55.602,8.352 L51.012,8.352 L51.012,9.54 C51.012,9.804 51.162,9.936 51.462,9.936 L52.254,9.936 C52.554,9.936 52.704,9.792 52.704,9.504 L52.704,9 L55.602,9 L55.602,9.81 C55.602,11.298 54.72,12.042 52.956,12.042 L50.76,12.042 C48.996,12.042 48.114,11.298 48.114,9.81 L48.114,5.292 C48.114,3.804 48.996,3.06 50.76,3.06 Z M51.012,6.696 L52.704,6.696 L52.704,5.562 C52.704,5.298 52.554,5.166 52.254,5.166 L51.462,5.166 C51.162,5.166 51.012,5.298 51.012,5.562 L51.012,6.696 Z" id="Shape"></path>
                <path d="M60.894,0 L63.954,0 L63.954,12.042 L60.948,12.042 L60.948,10.89 C60.78,11.658 60.234,12.042 59.31,12.042 L58.986,12.042 C57.39,12.042 56.592,11.298 56.592,9.81 L56.592,5.292 C56.592,3.804 57.39,3.06 58.986,3.06 L59.31,3.06 C60.138,3.06 60.666,3.384 60.894,4.032 L60.894,0 Z M60.102,9.792 L60.408,9.792 C60.732,9.792 60.894,9.612 60.894,9.252 L60.894,5.85 C60.894,5.49 60.732,5.31 60.408,5.31 L60.102,5.31 C59.802,5.31 59.652,5.442 59.652,5.706 L59.652,9.396 C59.652,9.66 59.802,9.792 60.102,9.792 Z" id="Shape"></path>
            </g>
            <polygon id="Triangle" fill="#337FCC" transform="translate(213, 167.07) rotate(-180) translate(-213, -167.07)" points="213 157.07 225 177.07 201 177.07"></polygon>
            <polygon id="Triangle" fill="#337FCC" transform="translate(343, 167.07) rotate(-180) translate(-343, -167.07)" points="343 157.07 355 177.07 331 177.07"></polygon>
            <polygon id="Triangle" fill="#337FCC" transform="translate(492, 167.07) rotate(-180) translate(-492, -167.07)" points="492 157.07 505 177.07 479 177.07"></polygon>
            <polygon id="Triangle" fill="#337FCC" transform="translate(642, 167.07) rotate(-180) translate(-642, -167.07)" points="642 157.07 655 177.07 629 177.07"></polygon>
        </g>
    </g>
</svg>