<svg xmlns="http://www.w3.org/2000/svg" viewBox="0 0 163.01 160.5"><defs><style>.a{fill:#8c6239;}.b{fill:#863334;}.c{fill:#42411e;}.d{fill:#5b817d;}.e,.h{fill:#603813;}.e{stroke:#000;stroke-miterlimit:10;}.f{fill:#3e2f41;}.g{fill:#42210b;}.i{fill:#a69085;}.j{fill:#c0a0cb;}.k{fill:#cabbb6;}.l{fill:#9f81a5;}.m{fill:#6d5f78;}.n{fill:#fdfcf9;}.o{fill:#656634;}.p{fill:#c0b9b4;}.q{fill:#cd7467;}.r{fill:#999;}</style></defs><path class="a" d="M0,139.5,36.5,150,163,94.37C163.29,94.24,127.5,83,127.5,83S-.34,139.4,0,139.5Z"/><polygon class="b" points="91.88 6.12 95.02 96.42 114.16 103.15 112.5 10.5 91.88 6.12"/><polygon class="c" points="74.5 23 77.02 104.42 96.16 111.15 94.54 27.74 74.5 23"/><polygon class="d" points="58.5 41 59.02 112 78.16 118.73 95.5 111.08 94.76 39.87 76.76 44.87 58.5 41"/><line class="e" x1="75.5" y1="45.5" x2="76.16" y2="119.73"/><polygon class="f" points="20.48 65.5 23.02 128 42.16 134.73 40 69.5 20.48 65.5"/><polygon class="g" points="0 139.5 0 150 37 160.31 37 149.5 0 139.5"/><polygon class="h" points="37 149.5 37 160.5 163 104.5 163 94.36 37 149.5"/><polygon class="i" points="94.76 39.87 74 34.5 56 40.5 75 45.5 94.76 39.87"/><polygon class="j" points="79.86 119.74 61.86 127.74 58.7 35.51 77.36 29.48 79.86 119.74"/><polygon class="k" points="39.18 31.52 56.58 25.75 77.36 29.48 58.7 35.51 39.18 31.52"/><polygon class="l" points="58.7 35.51 61.86 127.74 43 121.5 39.18 31.52 58.7 35.51"/><polygon class="m" points="40 69.5 58.66 63.47 60.16 126.73 42.16 134.73 40 69.5"/><polygon class="n" points="20.48 65.5 37.88 59.73 58.66 63.47 40 69.5 20.48 65.5"/><polygon class="o" points="96.16 111.15 114.16 103.15 113.5 22 94.54 27.74 96.16 111.15"/><polygon class="p" points="74.5 23 92.29 18.07 113.5 22 94.54 27.74 74.5 23"/><polygon class="q" points="131 4.5 112.5 10.5 114 102.5 131 94.36 131 4.5"/><polygon class="r" points="91.88 6.12 110.5 0 131 4.5 112.5 10.5 91.88 6.12"/></svg>