<svg xmlns="http://www.w3.org/2000/svg" viewBox="0 0 115 62.75"><defs><style>.a{fill:#42210b;}.b{fill:#221000;}.c{fill:#603813;}.d{fill:#404d60;}.e{fill:#8c6239;}.f{fill:#656634;}.g{fill:#cabbb6;}.h{fill:#333;}.i{fill:#c0b9b4;}.j{fill:#1a1a1a;}.k{fill:#121212;}.l{fill:none;stroke:#000;stroke-miterlimit:10;stroke-width:0.5px;}</style></defs><polygon class="a" points="20 62.75 0 45.75 22 40.75 48 56.75 20 62.75"/><polygon class="b" points="13.88 39.79 10 44.75 14.5 47.94 20 42.71 13.88 39.79"/><polygon class="c" points="9 18.75 37 14.75 48.17 55.47 20 61.75 9 18.75"/><polygon class="a" points="9 18.75 9 20.75 19.7 62.55 20 61.75 9 18.75"/><polygon class="b" points="48.17 55.47 47 56.35 19.7 62.55 20 61.75 48.17 55.47"/><polygon class="d" points="15 22.75 24 55.75 43 52.05 34 20.75 15 22.75"/><polygon class="b" points="34 19.75 34 20.75 42.53 52.14 43 52.05 34 19.75"/><polygon class="a" points="15 22.75 34 19.75 34 20.75 15.23 23.6 15 22.75"/><ellipse cx="28.5" cy="35.75" rx="5.5" ry="5"/><circle class="e" cx="29" cy="36.75" r="4"/><path class="f" d="M24,55.75a11.51,11.51,0,0,1,0-10,11,11,0,0,1,5.88-5.1A13.29,13.29,0,0,1,38,43.75a13.44,13.44,0,0,1,4.53,8.39Z"/><polygon class="g" points="24.5 44.9 23.75 46.26 38 43.75 36.56 42.7 24.5 44.9"/><polygon class="g" points="22.83 49.79 22.83 51.47 41.25 47.94 40.43 46.51 22.83 49.79"/><polygon class="h" points="112 9.75 115 41.75 108 52.75 60 43.75 63.77 0.83 112 9.75"/><polygon class="i" points="63.77 0.83 57 36.75 105.93 45.52 112 9.75 63.77 0.83"/><polygon class="j" points="112 9.75 108 52.75 115 41.75 112 9.75"/><ellipse class="h" cx="65.78" cy="2.87" rx="0.79" ry="0.45" transform="translate(50.45 66.9) rotate(-79.04)"/><polygon class="k" points="108 52.75 115 41.75 109.16 40.29 108 52.75"/><ellipse class="l" cx="66.5" cy="1.75" rx="1" ry="1.5"/><polygon class="i" points="66.22 2.96 66.04 3.4 67.5 4.25 67.9 1.6 67.06 1.44 66.22 2.96"/><ellipse class="h" cx="73.2" cy="4.27" rx="0.79" ry="0.45" transform="translate(55.09 75.32) rotate(-79.04)"/><ellipse class="l" cx="73.93" cy="3.15" rx="1" ry="1.5"/><polygon class="i" points="73.64 4.36 73.46 4.8 74.93 5.65 75.32 3 74.48 2.84 73.64 4.36"/><ellipse class="h" cx="69.52" cy="3.57" rx="0.79" ry="0.45" transform="translate(52.79 71.14) rotate(-79.04)"/><ellipse class="l" cx="70.24" cy="2.45" rx="1" ry="1.5"/><polygon class="i" points="69.96 3.65 69.78 4.1 71.25 4.95 71.64 2.3 70.8 2.14 69.96 3.65"/><ellipse class="h" cx="77.14" cy="5.02" rx="0.79" ry="0.45" transform="translate(57.53 79.8) rotate(-79.04)"/><ellipse class="l" cx="77.86" cy="3.9" rx="1" ry="1.5"/><polygon class="i" points="77.58 5.11 77.4 5.55 78.86 6.4 79.26 3.75 78.42 3.6 77.58 5.11"/><ellipse class="h" cx="81.18" cy="5.72" rx="0.79" ry="0.45" transform="translate(60.12 84.33) rotate(-79.04)"/><ellipse class="l" cx="81.9" cy="4.6" rx="1" ry="1.5"/><polygon class="i" points="81.62 5.8 81.44 6.25 82.9 7.1 83.3 4.45 82.46 4.29 81.62 5.8"/><ellipse class="h" cx="85.18" cy="6.47" rx="0.79" ry="0.45" transform="translate(62.63 88.87) rotate(-79.04)"/><ellipse class="l" cx="85.9" cy="5.35" rx="1" ry="1.5"/><polygon class="i" points="85.62 6.55 85.44 7 86.9 7.85 87.3 5.2 86.46 5.04 85.62 6.55"/><ellipse class="h" cx="89.18" cy="7.22" rx="0.79" ry="0.45" transform="translate(65.13 93.4) rotate(-79.04)"/><ellipse class="l" cx="89.9" cy="6.1" rx="1" ry="1.5"/><polygon class="i" points="89.62 7.3 89.44 7.75 90.9 8.6 91.3 5.95 90.46 5.79 89.62 7.3"/><ellipse class="h" cx="93.56" cy="8.02" rx="0.79" ry="0.45" transform="translate(67.89 98.35) rotate(-79.04)"/><ellipse class="l" cx="94.29" cy="6.9" rx="1" ry="1.5"/><polygon class="i" points="94 8.11 93.82 8.55 95.29 9.4 95.69 6.75 94.85 6.59 94 8.11"/><ellipse class="h" cx="97.56" cy="8.72" rx="0.79" ry="0.45" transform="translate(70.45 102.84) rotate(-79.04)"/><ellipse class="l" cx="98.29" cy="7.6" rx="1" ry="1.5"/><polygon class="i" points="98 8.8 97.82 9.25 99.29 10.1 99.69 7.45 98.85 7.29 98 8.8"/><ellipse class="h" cx="101.56" cy="9.47" rx="0.79" ry="0.45" transform="translate(72.95 107.38) rotate(-79.04)"/><ellipse class="l" cx="102.29" cy="8.35" rx="1" ry="1.5"/><polygon class="i" points="102 9.55 101.82 10 103.29 10.85 103.69 8.2 102.85 8.04 102 9.55"/><ellipse class="h" cx="105.56" cy="10.22" rx="0.79" ry="0.45" transform="translate(75.45 111.91) rotate(-79.04)"/><ellipse class="l" cx="106.29" cy="9.1" rx="1" ry="1.5"/><polygon class="i" points="106 10.3 105.82 10.75 107.29 11.6 107.69 8.95 106.85 8.79 106 10.3"/><ellipse class="h" cx="109.56" cy="10.97" rx="0.79" ry="0.45" transform="translate(77.95 116.45) rotate(-79.04)"/><ellipse class="l" cx="110.29" cy="9.85" rx="1" ry="1.5"/><polygon class="i" points="110 11.05 109.82 11.5 111.29 12.35 111.69 9.7 110.85 9.54 110 11.05"/><path d="M70,14.79l-4.33-.74.19-1.12,1.45.25.77-4.5a.32.32,0,0,0,0-.21c0-.05-.08-.08-.18-.1l-1-.17L67,7.07l2,.34a.81.81,0,0,1,.57.29,1,1,0,0,1,.07.64l-.87,5.09,1.41.24Z"/><path d="M76,15.81,71.3,15l.17-1,2.85-2.33a4.15,4.15,0,0,0,.63-.59,1.37,1.37,0,0,0,.3-.69.81.81,0,0,0-.18-.77,1.21,1.21,0,0,0-.64-.31,2.93,2.93,0,0,0-.89,0c-.32.05-.62.1-.9.16l-.12-1.13a6.79,6.79,0,0,1,1.08-.17,4.59,4.59,0,0,1,1.17.05,2.51,2.51,0,0,1,1.67.81,2,2,0,0,1,.28,1.55,2.47,2.47,0,0,1-.48,1.13,6.05,6.05,0,0,1-.92.89l-2,1.58,2.87.49Z"/><path d="M85.94,20.2l-.09,0,0,.16-.17,0,0-.16-.37-.07,0-.14.48-.47.17,0-.1.55.08,0ZM85.71,20l.05-.29-.25.25Z"/><path d="M91.33,21.29a.27.27,0,0,1-.08.07l-.12,0-.12,0a.3.3,0,0,1-.12,0l-.1,0,.06-.13.09.05.1,0a.14.14,0,0,0,.11,0,.11.11,0,0,0,.06-.1s0-.08,0-.1A.26.26,0,0,0,91,21H91l0,0a.07.07,0,0,1,0-.06l.07-.39.49.1,0,.13-.31-.06,0,.19h0a.38.38,0,0,1,.22.11.29.29,0,0,1,0,.35Z"/><path d="M96.64,22a.78.78,0,0,1,0-.18.35.35,0,0,1,.07-.12.24.24,0,0,1,.11-.06.5.5,0,0,1,.17,0l.11,0,.11.05-.06.12-.09,0-.08,0a.14.14,0,0,0-.13,0,.24.24,0,0,0-.07.16H97a.27.27,0,0,1,.19.1.41.41,0,0,1-.08.42.29.29,0,0,1-.23,0l-.15-.05a.23.23,0,0,1-.08-.09.21.21,0,0,1,0-.12,1.28,1.28,0,0,1,0-.17Zm.22.09-.06,0v.07a.33.33,0,0,0,0,.14s0,.05.09.06a.09.09,0,0,0,.09,0s0-.05,0-.1a.24.24,0,0,0,0-.12.13.13,0,0,0-.09,0Z"/><path d="M103.05,23l-.44.64-.17,0,.44-.64-.39-.08,0-.13.56.11Z"/><path d="M68.66,22.88l-.51-.1,0-.13.18,0,.1-.53v0h0l-.13,0,0-.14.24.05a.09.09,0,0,1,.06,0,.19.19,0,0,1,0,.08l-.12.61.17,0Z"/><path d="M73.84,23.89l-.56-.11,0-.12.35-.27.07-.07a.2.2,0,0,0,0-.08.09.09,0,0,0,0-.09.1.1,0,0,0-.07,0h-.11l-.11,0V23h.13a.33.33,0,0,1,.14,0,.27.27,0,0,1,.2.1.27.27,0,0,1,0,.18.3.3,0,0,1-.06.14.63.63,0,0,1-.12.1l-.24.19.34.06Z"/><path d="M79.23,24.88a.29.29,0,0,1-.23,0,.7.7,0,0,1-.14,0l-.11-.06.06-.12,0,0,.05,0,0,0h.16s0,0,0,0,0,0,0-.07V24.6l0,0-.05,0h0l-.13,0,0-.13.13,0a.17.17,0,0,0,.1,0s.06,0,.07-.09,0-.06,0-.08a.18.18,0,0,0-.09,0h-.22V24L79,24h.13a.35.35,0,0,1,.21.1.19.19,0,0,1,0,.18.23.23,0,0,1-.06.13.26.26,0,0,1-.12,0,.17.17,0,0,1,.1.07.18.18,0,0,1,0,.13A.23.23,0,0,1,79.23,24.88Z"/><path d="M84.84,25.85h-.08l0,.16-.18,0,0-.16-.37-.07,0-.13.48-.47.17,0-.11.54.09,0Zm-.23-.18.06-.29-.26.25Z"/><path d="M90.24,27a.24.24,0,0,1-.09.06A.22.22,0,0,1,90,27h-.13l-.11,0-.11-.05.07-.12a.2.2,0,0,0,.08,0l.1,0a.24.24,0,0,0,.12,0,.14.14,0,0,0,.06-.1.1.1,0,0,0,0-.11.27.27,0,0,0-.14-.05l-.08,0a.05.05,0,0,1-.05,0s0,0,0-.06l.08-.38.48.09,0,.14L90,26.3l0,.18h0a.41.41,0,0,1,.22.1.24.24,0,0,1,0,.22A.46.46,0,0,1,90.24,27Z"/><path d="M95.54,27.64c0-.07,0-.13,0-.18a.35.35,0,0,1,.07-.12.27.27,0,0,1,.12-.06.48.48,0,0,1,.17,0l.1,0a.28.28,0,0,1,.11.05l-.06.12-.09,0-.08,0a.19.19,0,0,0-.13,0,.34.34,0,0,0-.07.17h.15a.27.27,0,0,1,.19.11.26.26,0,0,1,0,.22.3.3,0,0,1-.11.19.28.28,0,0,1-.23,0,.53.53,0,0,1-.15,0,.3.3,0,0,1-.08-.08.51.51,0,0,1,0-.13.5.5,0,0,1,0-.16Zm.23.09h-.06l0,.07a.32.32,0,0,0,0,.14s0,.06.1.07a.15.15,0,0,0,.09,0,.23.23,0,0,0,.05-.11c0-.05,0-.09,0-.11a.11.11,0,0,0-.08-.05S95.79,27.72,95.77,27.73Z"/><path d="M102,28.6l-.45.65-.17,0,.44-.65-.38-.07,0-.14.56.11Z"/><path d="M67.57,28.54l-.52-.1,0-.14.17,0,.1-.54s0,0,0,0,0,0,0,0l-.12,0,0-.13.24,0s.06,0,.07,0a.08.08,0,0,1,0,.07l-.11.61.16,0Z"/><path d="M72.74,29.54l-.56-.11,0-.11.35-.28a.29.29,0,0,0,.08-.07.15.15,0,0,0,0-.08s0-.07,0-.09l-.08,0a.2.2,0,0,0-.11,0h-.1l0-.13.14,0h.13a.29.29,0,0,1,.2.1.2.2,0,0,1,0,.19.26.26,0,0,1-.06.13l-.11.11-.25.18.35.07Z"/><path d="M78.14,30.54a.38.38,0,0,1-.24,0l-.14,0-.11-.06.07-.12,0,0,0,0,0,0H78a.1.1,0,0,0,0,0,.08.08,0,0,0,0-.06s0-.05,0-.06,0,0,0,0,0,0,0,0l-.06,0-.12,0,0-.14L78,30a.2.2,0,0,0,.11,0s0,0,.06-.09a.08.08,0,0,0,0-.08.19.19,0,0,0-.09,0h-.22V29.7l.13,0h.13a.35.35,0,0,1,.21.1.17.17,0,0,1,0,.17.2.2,0,0,1-.07.13.16.16,0,0,1-.11.05.17.17,0,0,1,.11.21A.27.27,0,0,1,78.14,30.54Z"/><path d="M83.75,31.51l-.09,0,0,.16-.17,0,0-.16-.38-.07,0-.14.48-.47.17,0-.1.55.08,0Zm-.23-.18,0-.29-.25.25Z"/><path d="M89.14,32.6a.22.22,0,0,1-.09.07l-.11,0-.12,0-.12,0-.1,0,.06-.13.09,0,.1,0a.2.2,0,0,0,.11,0s.05-.05.06-.1a.11.11,0,0,0,0-.1.26.26,0,0,0-.15-.06l-.07,0a.08.08,0,0,1-.06,0s0,0,0-.06l.07-.39.49.1,0,.13L88.94,32l0,.19h0a.42.42,0,0,1,.22.11.29.29,0,0,1,0,.35Z"/><path d="M94.45,33.29a.78.78,0,0,1,0-.18.25.25,0,0,1,.18-.18.5.5,0,0,1,.17,0L95,33l.1.05,0,.12-.09,0-.08,0a.14.14,0,0,0-.13,0,.24.24,0,0,0-.07.16h.15a.27.27,0,0,1,.19.1.41.41,0,0,1-.08.42.29.29,0,0,1-.23,0l-.15-.05a.32.32,0,0,1-.08-.09.24.24,0,0,1,0-.12,1.28,1.28,0,0,1,0-.17Zm.22.09-.06,0v.07a.17.17,0,0,0,0,.14s0,0,.09.06a.09.09,0,0,0,.09,0s0,0,0-.1,0-.09,0-.12a.09.09,0,0,0-.08,0Z"/><path d="M100.86,34.26l-.44.64-.17,0,.44-.64-.39-.08,0-.13.56.11Z"/><path d="M66.47,34.19l-.52-.1L66,34l.17,0,.11-.53v0h0l-.12,0,0-.14.23.05a.09.09,0,0,1,.07,0,.19.19,0,0,1,0,.08l-.12.61.17,0Z"/><path d="M71.65,35.2l-.57-.11,0-.12.35-.27.07-.07a.2.2,0,0,0,0-.08.09.09,0,0,0,0-.09.1.1,0,0,0-.07,0h-.11l-.11,0v-.14h.27a.32.32,0,0,1,.2.11.27.27,0,0,1,0,.18.3.3,0,0,1-.06.14.63.63,0,0,1-.12.1l-.24.19.34.06Z"/><path d="M77,36.19a.29.29,0,0,1-.23,0,.33.33,0,0,1-.14,0,.23.23,0,0,1-.11-.05l.06-.12,0,0,0,0,0,0h.17l0,0L77,36v-.06l0,0,0,0h0l-.13,0,0-.13.12,0a.2.2,0,0,0,.11,0,.11.11,0,0,0,.07-.09.1.1,0,0,0,0-.08.13.13,0,0,0-.09,0h-.21l0-.13.14,0H77a.38.38,0,0,1,.21.1.19.19,0,0,1,0,.18.23.23,0,0,1-.06.13.19.19,0,0,1-.12,0,.25.25,0,0,1,.1.08.14.14,0,0,1,0,.13A.22.22,0,0,1,77,36.19Z"/><path d="M82.65,37.16h-.08l0,.16-.17,0,0-.16L82,37l0-.13.49-.47.17,0-.11.54.09,0ZM82.42,37l.06-.29-.26.25Z"/><path d="M88.05,38.26a.24.24,0,0,1-.09.06.22.22,0,0,1-.11,0h-.13l-.11,0-.11,0,.06-.12.09,0,.1,0a.2.2,0,0,0,.11,0,.13.13,0,0,0,.07-.1.1.1,0,0,0,0-.11.38.38,0,0,0-.14-.06h-.08a.05.05,0,0,1-.05,0s0,0,0-.06l.08-.38.48.09,0,.14-.32-.07,0,.19h0a.45.45,0,0,1,.23.1.24.24,0,0,1,0,.22A.46.46,0,0,1,88.05,38.26Z"/><path d="M93.35,39c0-.07,0-.13.05-.18a.35.35,0,0,1,.07-.12.23.23,0,0,1,.12-.06.48.48,0,0,1,.17,0l.1,0,.11.06-.06.12-.09,0-.08,0a.19.19,0,0,0-.13,0,.34.34,0,0,0-.07.17h.15a.26.26,0,0,1,.19.11.24.24,0,0,1,0,.21.3.3,0,0,1-.11.2.28.28,0,0,1-.23,0l-.15-.05a.3.3,0,0,1-.08-.08.51.51,0,0,1,0-.13,1,1,0,0,1,0-.16Zm.23.09h-.07v.07a.32.32,0,0,0,0,.14s0,.06.1.07a.15.15,0,0,0,.09,0,.23.23,0,0,0,0-.11.18.18,0,0,0,0-.11.11.11,0,0,0-.08-.05Z"/><path d="M99.77,39.91l-.45.65-.17,0,.44-.65-.39-.07,0-.14.56.11Z"/></svg>